<svg xmlns="http://www.w3.org/2000/svg" width="1200" height="630" viewBox="0 0 1200 630">
  <defs>
    <linearGradient id="bg" x1="0" y1="0" x2="1" y2="1">
      <stop offset="0%" stop-color="#1c1c18"/>
      <stop offset="100%" stop-color="#2a2a24"/>
    </linearGradient>
    <linearGradient id="accent" x1="0" y1="0" x2="1" y2="0">
      <stop offset="0%" stop-color="#607d6b"/>
      <stop offset="100%" stop-color="#8aab8e"/>
    </linearGradient>
  </defs>

  <!-- Background -->
  <rect width="1200" height="630" fill="url(#bg)"/>

  <!-- Subtle grid pattern -->
  <g opacity="0.03">
    <line x1="0" y1="0" x2="0" y2="630" stroke="#fff" stroke-width="0.5"/>
    <line x1="60" y1="0" x2="60" y2="630" stroke="#fff" stroke-width="0.5"/>
    <line x1="120" y1="0" x2="120" y2="630" stroke="#fff" stroke-width="0.5"/>
    <line x1="180" y1="0" x2="180" y2="630" stroke="#fff" stroke-width="0.5"/>
    <line x1="240" y1="0" x2="240" y2="630" stroke="#fff" stroke-width="0.5"/>
    <line x1="300" y1="0" x2="300" y2="630" stroke="#fff" stroke-width="0.5"/>
    <line x1="360" y1="0" x2="360" y2="630" stroke="#fff" stroke-width="0.5"/>
    <line x1="420" y1="0" x2="420" y2="630" stroke="#fff" stroke-width="0.5"/>
    <line x1="480" y1="0" x2="480" y2="630" stroke="#fff" stroke-width="0.5"/>
    <line x1="540" y1="0" x2="540" y2="630" stroke="#fff" stroke-width="0.5"/>
    <line x1="600" y1="0" x2="600" y2="630" stroke="#fff" stroke-width="0.5"/>
    <line x1="660" y1="0" x2="660" y2="630" stroke="#fff" stroke-width="0.5"/>
    <line x1="720" y1="0" x2="720" y2="630" stroke="#fff" stroke-width="0.5"/>
    <line x1="780" y1="0" x2="780" y2="630" stroke="#fff" stroke-width="0.5"/>
    <line x1="840" y1="0" x2="840" y2="630" stroke="#fff" stroke-width="0.5"/>
    <line x1="900" y1="0" x2="900" y2="630" stroke="#fff" stroke-width="0.5"/>
    <line x1="960" y1="0" x2="960" y2="630" stroke="#fff" stroke-width="0.5"/>
    <line x1="1020" y1="0" x2="1020" y2="630" stroke="#fff" stroke-width="0.5"/>
    <line x1="1080" y1="0" x2="1080" y2="630" stroke="#fff" stroke-width="0.5"/>
    <line x1="1140" y1="0" x2="1140" y2="630" stroke="#fff" stroke-width="0.5"/>
    <line x1="0" y1="0" x2="1200" y2="0" stroke="#fff" stroke-width="0.5"/>
    <line x1="0" y1="63" x2="1200" y2="63" stroke="#fff" stroke-width="0.5"/>
    <line x1="0" y1="126" x2="1200" y2="126" stroke="#fff" stroke-width="0.5"/>
    <line x1="0" y1="189" x2="1200" y2="189" stroke="#fff" stroke-width="0.5"/>
    <line x1="0" y1="252" x2="1200" y2="252" stroke="#fff" stroke-width="0.5"/>
    <line x1="0" y1="315" x2="1200" y2="315" stroke="#fff" stroke-width="0.5"/>
    <line x1="0" y1="378" x2="1200" y2="378" stroke="#fff" stroke-width="0.5"/>
    <line x1="0" y1="441" x2="1200" y2="441" stroke="#fff" stroke-width="0.5"/>
    <line x1="0" y1="504" x2="1200" y2="504" stroke="#fff" stroke-width="0.5"/>
    <line x1="0" y1="567" x2="1200" y2="567" stroke="#fff" stroke-width="0.5"/>
  </g>

  <!-- Decorative gradient sphere -->
  <circle cx="1000" cy="100" r="300" fill="url(#accent)" opacity="0.04"/>

  <!-- Brand mark (top-left) -->
  <circle cx="60" cy="60" r="22" fill="#607d6b"/>
  <text x="60" y="66" text-anchor="middle" fill="#fff" font-family="Inter, sans-serif" font-weight="800" font-size="14" letter-spacing="-0.5">S&amp;S</text>

  <!-- Main title -->
  <text x="80" y="240" fill="#f6f4ef" font-family="Inter, sans-serif" font-weight="900" font-size="72" letter-spacing="-0.06em">
    AI Automation
  </text>
  <text x="80" y="310" fill="#f6f4ef" font-family="Inter, sans-serif" font-weight="900" font-size="72" letter-spacing="-0.06em">
    Workshop
  </text>

  <!-- Accent line -->
  <rect x="80" y="340" width="60" height="3" rx="1.5" fill="#607d6b"/>

  <!-- Subtitle -->
  <text x="80" y="380" fill="#a8a498" font-family="Inter, sans-serif" font-weight="600" font-size="22" letter-spacing="-0.02em">
    Build 3 working AI workflows in one day.
  </text>

  <!-- Details row -->
  <rect x="80" y="420" width="0.5" height="28" fill="#607d6b" opacity="0.5"/>
  <text x="92" y="440" fill="#96968e" font-family="Inter, sans-serif" font-weight="500" font-size="16">
    Aug 1, 2026
  </text>
  <circle cx="220" cy="435" r="3" fill="#607d6b"/>
  <text x="235" y="440" fill="#96968e" font-family="Inter, sans-serif" font-weight="500" font-size="16">
    Abuja
  </text>
  <circle cx="310" cy="435" r="3" fill="#607d6b"/>
  <text x="325" y="440" fill="#96968e" font-family="Inter, sans-serif" font-weight="500" font-size="16">
    ₦55,000
  </text>

  <!-- Bottom site name -->
  <text x="80" y="580" fill="#4a4a44" font-family="Inter, sans-serif" font-weight="600" font-size="14" letter-spacing="0.08em" text-transform="uppercase">
    STONES AND STACKS CONSULTING
  </text>
</svg>
